<svg xmlns="http://www.w3.org/2000/svg" xmlns:xlink="http://www.w3.org/1999/xlink" width="500" zoomAndPan="magnify" viewBox="0 0 375 374.999991" height="500" preserveAspectRatio="xMidYMid meet" version="1.0"><defs><clipPath id="id1"><path d="M 29.398438 2.523438 L 318.898438 2.523438 L 318.898438 372.273438 L 29.398438 372.273438 Z M 29.398438 2.523438 " clip-rule="nonzero"/></clipPath><clipPath id="id2"><path d="M 29.398438 0 L 318.898438 0 L 318.898438 369.75 L 29.398438 369.75 Z M 29.398438 0 " clip-rule="nonzero"/></clipPath></defs><g clip-path="url(#id1)"><path fill="#fdd602" d="M 208.117188 132 L 140.164062 132 L 140.164062 38.398438 L 104.488281 2.738281 L 29.398438 2.738281 L 29.398438 336.402344 L 65.082031 372.054688 L 140.164062 372.054688 L 140.164062 242.710938 L 208.117188 242.671875 L 208.117188 336.402344 L 243.800781 372.054688 L 318.898438 372.054688 L 318.898438 38.398438 L 283.222656 2.738281 L 208.125 2.738281 L 208.125 132 Z M 104.488281 9.292969 L 135.527344 40.308594 L 135.527344 132 L 104.492188 132 Z M 135.523438 364.140625 L 104.484375 333.121094 L 104.484375 210.335938 L 135.523438 241.359375 Z M 283.222656 9.292969 L 314.261719 40.308594 L 314.261719 364.140625 L 283.222656 333.117188 Z M 212.761719 7.359375 L 278.578125 7.359375 L 278.578125 331.765625 L 212.761719 331.765625 L 212.761719 202.421875 L 99.84375 202.421875 L 99.84375 331.765625 L 34.035156 331.765625 L 34.035156 7.359375 L 99.847656 7.359375 L 99.847656 136.617188 L 212.761719 136.617188 Z M 91.597656 15.609375 L 42.277344 15.609375 L 42.277344 323.515625 L 91.597656 323.515625 L 91.597656 194.195312 L 221 194.195312 L 221 323.515625 L 270.328125 323.515625 L 270.328125 15.609375 L 221 15.609375 L 221 144.882812 L 91.597656 144.882812 Z M 91.855469 154.660156 L 230.785156 154.660156 L 230.785156 25.386719 L 265.6875 25.386719 L 265.6875 318.882812 L 230.785156 318.882812 L 230.785156 194.4375 L 225.640625 189.558594 L 86.960938 189.558594 L 86.960938 318.882812 L 52.066406 318.882812 L 52.066406 25.386719 L 86.960938 25.386719 L 86.960938 149.511719 Z M 91.855469 154.660156 " fill-opacity="1" fill-rule="nonzero"/></g><g clip-path="url(#id2)"><path fill="#fdd602" d="M 208.117188 129.476562 L 140.164062 129.476562 L 140.164062 35.875 L 104.488281 0.214844 L 29.398438 0.214844 L 29.398438 333.878906 L 65.082031 369.53125 L 140.164062 369.53125 L 140.164062 240.1875 L 208.117188 240.148438 L 208.117188 333.878906 L 243.800781 369.53125 L 318.898438 369.53125 L 318.898438 35.875 L 283.222656 0.214844 L 208.125 0.214844 L 208.125 129.476562 Z M 104.488281 6.769531 L 135.527344 37.78125 L 135.527344 129.476562 L 104.492188 129.476562 Z M 135.523438 361.617188 L 104.484375 330.597656 L 104.484375 207.8125 L 135.523438 238.832031 Z M 283.222656 6.769531 L 314.261719 37.78125 L 314.261719 361.617188 L 283.222656 330.59375 Z M 212.761719 4.835938 L 278.578125 4.835938 L 278.578125 329.242188 L 212.761719 329.242188 L 212.761719 199.898438 L 99.84375 199.898438 L 99.84375 329.242188 L 34.035156 329.242188 L 34.035156 4.835938 L 99.847656 4.835938 L 99.847656 134.09375 L 212.761719 134.09375 Z M 91.597656 13.085938 L 42.277344 13.085938 L 42.277344 320.992188 L 91.597656 320.992188 L 91.597656 191.671875 L 221 191.671875 L 221 320.992188 L 270.328125 320.992188 L 270.328125 13.085938 L 221 13.085938 L 221 142.359375 L 91.597656 142.359375 Z M 91.855469 152.136719 L 230.785156 152.136719 L 230.785156 22.863281 L 265.6875 22.863281 L 265.6875 316.359375 L 230.785156 316.359375 L 230.785156 191.914062 L 225.640625 187.035156 L 86.960938 187.035156 L 86.960938 316.359375 L 52.066406 316.359375 L 52.066406 22.863281 L 86.960938 22.863281 L 86.960938 146.984375 Z M 91.855469 152.136719 " fill-opacity="1" fill-rule="nonzero"/></g></svg>